<svg width="110" height="110" viewBox="0 0 110 110" fill="none" xmlns="http://www.w3.org/2000/svg">
<g filter="url(#filter0_d_1028_2333)">
<rect x="22" y="18" width="66" height="66" rx="33" fill="#F9F4FF" shape-rendering="crispEdges"/>
<g clip-path="url(#clip0_1028_2333)">
<path d="M42.7339 35.1427L42.304 37.1424L38 40.6424L39.1474 46.7853L38.2149 51.5716L42.304 56.4282L43.954 60.714L50.6244 61.4998L54.7134 64L59.6622 61.0707L65.6162 60.7854L68.3419 54.9279L71.9284 52.071L71.1392 45.5001L72 39.3572L67.2661 36.5003L65.5445 31.714L59.8782 31.4287L54.8567 28L49.1188 31.4287H44.4555L42.7339 35.1427Z" fill="#F0DCFF"/>
<path d="M41 70L44 61H49.5L54 64L50 74.5L46 70.5L41 70Z" fill="#F0DCFF"/>
<path d="M60 60.5L56.5 63L56 64L60 74.5C61.1667 73.1667 63.6 70.4 64 70C64.4 69.6 67.8333 70.1667 69.5 70.5L66 61L60 60.5Z" fill="#F0DCFF"/>
<circle cx="55" cy="46" r="11" fill="#8C1EDF"/>
<path d="M61.3715 43.1588L57.5577 42.597L55.8518 39.0915C55.7599 38.9017 55.608 38.7487 55.4219 38.6554C54.9524 38.4201 54.3845 38.6153 54.1524 39.0915L52.4466 42.597L48.6317 43.1588C48.4253 43.1892 48.2339 43.2879 48.0884 43.4386C47.7227 43.8183 47.7302 44.4267 48.1045 44.7977L50.8648 47.5266L50.2124 51.3792C50.2028 51.4323 50.1985 51.4866 50.1985 51.5419C50.1985 52.0722 50.6231 52.5028 51.1461 52.5028C51.3001 52.5018 51.452 52.4627 51.5878 52.389L54.9995 50.5733L58.4111 52.389C58.5951 52.4877 58.8068 52.5224 59.0132 52.4877C59.5298 52.3987 59.8774 51.903 59.7897 51.3803L59.1373 47.5277L61.8976 44.7988C62.0474 44.6513 62.1436 44.4571 62.1736 44.2478C62.2484 43.7217 61.8891 43.2347 61.3704 43.1588H61.3715ZM57.4561 46.4951C57.2315 46.7164 57.1299 47.0363 57.1833 47.3498L57.594 49.7815L55.4412 48.6329C55.3053 48.5613 55.1535 48.5255 54.9995 48.5255C54.8454 48.5266 54.6936 48.5657 54.5578 48.6394L52.4049 49.788L52.8166 47.3563C52.8701 47.0428 52.7685 46.724 52.5439 46.5016L50.8017 44.7792L53.2091 44.4246C53.5182 44.379 53.7845 44.1827 53.9236 43.8996L54.9995 41.687L56.0754 43.8996C56.2133 44.1838 56.4807 44.3801 56.7898 44.4246L59.1983 44.7727L57.4561 46.494V46.4951Z" fill="#F9F4FF"/>
<path d="M54.9995 33.2344C48.1879 33.2344 42.6661 38.8343 42.6661 45.7423C42.6661 52.6502 48.1879 58.2501 54.9995 58.2501C61.8078 58.2426 67.3253 52.647 67.3328 45.7423C67.3328 38.8343 61.811 33.2344 54.9995 33.2344ZM54.9995 56.3271C49.2349 56.3271 44.5613 51.5873 44.5613 45.7412C44.5613 39.8951 49.2349 35.1552 54.9995 35.1552C60.7619 35.1618 65.4312 39.8972 65.4377 45.7412C65.4377 51.5873 60.764 56.3271 54.9995 56.3271Z" fill="#8C1EDF"/>
<path d="M72.3584 48.3337L70.5852 49.0137C70.8611 49.7534 71.2044 50.6743 71.0868 51.0431C70.9541 51.4574 70.151 51.9878 69.4408 52.4574C68.5981 53.0149 67.6398 53.6472 66.9821 54.5659C66.3243 55.4846 66.0131 56.6213 65.7468 57.6148C65.5361 58.3957 65.2773 59.3675 64.9415 59.6148C64.6057 59.8621 63.6324 59.8079 62.8357 59.7699C61.8175 59.7211 60.6635 59.6636 59.578 60.0237C58.5246 60.3697 57.6497 61.0921 56.8754 61.7244C56.2113 62.2689 55.4573 62.8861 55.0027 62.8861C54.5482 62.8861 53.7953 62.2689 53.129 61.7223C52.3536 61.0867 51.4756 60.3676 50.4275 60.0227C49.8275 59.8253 49.1548 59.7331 48.3088 59.7331C47.9185 59.7331 47.5356 59.7515 47.1677 59.7689C46.3773 59.8068 45.3934 59.8545 45.0683 59.6138C44.7432 59.3741 44.4726 58.3925 44.2619 57.6115C43.9956 56.6169 43.694 55.4911 43.0277 54.5627C42.3614 53.6331 41.4128 53.0127 40.5679 52.4542C39.8588 51.9856 39.0556 51.4541 38.923 51.0398C38.8054 50.6732 39.1497 49.7524 39.4257 49.0105C39.7914 48.0311 40.2042 46.9215 40.2042 45.7403C40.2042 44.5592 39.7904 43.4496 39.4246 42.4702C39.1487 41.7305 38.8054 40.8085 38.9219 40.4409C39.0546 40.0265 39.8577 39.4961 40.5679 39.0254C41.4106 38.4679 42.3678 37.8356 43.0266 36.918C43.6854 36.0004 43.9956 34.8626 44.2619 33.8691C44.4726 33.0882 44.7314 32.1164 45.0672 31.8691C45.403 31.6218 46.3763 31.676 47.1677 31.714C48.1858 31.7628 49.3409 31.8213 50.4318 31.4602C51.4852 31.1142 52.359 30.3918 53.1343 29.7584C53.7931 29.2117 54.5471 28.5957 55.0017 28.5957C55.4562 28.5957 56.2091 29.2117 56.8743 29.7584C57.6497 30.394 58.5278 31.1131 59.5769 31.4602C60.6635 31.8181 61.8186 31.7628 62.841 31.714C63.6314 31.676 64.6153 31.6294 64.9404 31.8691C65.2655 32.1088 65.5308 33.0871 65.7415 33.8691C66.0078 34.8637 66.3094 35.9885 66.9756 36.918C67.6419 37.8475 68.5906 38.469 69.4355 39.0265C70.1445 39.4951 70.9477 40.0265 71.0814 40.4409C71.1991 40.8085 70.8547 41.7294 70.5788 42.4702C70.213 43.4496 69.7991 44.5603 69.7991 45.7403C69.7991 46.9204 70.213 48.0311 70.5788 49.0105L71.4654 48.671L72.352 48.3315C72.014 47.4258 71.6953 46.5701 71.6953 45.7403C71.6953 44.9106 72.0108 44.0548 72.3509 43.1492C72.7905 41.9745 73.2054 40.8563 72.8824 39.8476C72.5423 38.7868 71.4878 38.0905 70.4686 37.4169C69.7317 36.9267 68.9606 36.4202 68.5072 35.7889C68.0537 35.1566 67.8034 34.2411 67.5692 33.3669C67.2377 32.1305 66.9243 30.9623 66.0495 30.317C65.1746 29.6716 64.0003 29.7356 62.7448 29.7953C61.8464 29.8376 60.917 29.8831 60.1598 29.6326C59.4433 29.3961 58.7417 28.8213 58.0636 28.2649C57.1064 27.4828 56.1246 26.6748 55.0006 26.6748C53.8766 26.6748 52.8948 27.4828 51.9365 28.2659C51.2585 28.8224 50.5558 29.3972 49.8403 29.6326C49.0831 29.881 48.1944 29.8397 47.2554 29.7953C45.9998 29.7356 44.8148 29.6792 43.9496 30.3159C43.0844 30.9526 42.7614 32.1315 42.4299 33.3669C42.1946 34.2411 41.9529 35.1457 41.4919 35.7889C41.031 36.4321 40.2727 36.9278 39.5305 37.4169C38.5113 38.0905 37.4567 38.7868 37.1166 39.8476C36.7937 40.8574 37.2097 41.9702 37.6482 43.1502C37.9851 44.0559 38.3038 44.9117 38.3038 45.7403C38.3038 46.569 37.9883 47.4247 37.6482 48.3315C37.2086 49.5061 36.7937 50.6255 37.1166 51.6331C37.4567 52.6949 38.5113 53.3913 39.5305 54.0648C40.2673 54.5551 41.0384 55.0616 41.4908 55.6939C41.9432 56.3263 42.1946 57.2417 42.4288 58.1159C42.6309 58.8719 42.8277 59.6029 43.1507 60.2038L39.3112 70.1617C39.1209 70.6563 39.3615 71.2138 39.8492 71.4069C39.9946 71.4644 40.1518 71.485 40.3059 71.4654L45.6768 70.8136L49.1847 74.9851C49.5248 75.3885 50.1227 75.4363 50.5205 75.0913C50.6403 74.9872 50.7323 74.8549 50.789 74.7063L54.6167 64.7744C54.8712 64.8178 55.1321 64.8178 55.3867 64.7744L59.2133 74.7063C59.4037 75.2009 59.9534 75.4449 60.4411 75.2508C60.5865 75.1933 60.7159 75.1 60.8175 74.9796L64.3255 70.8082L69.6954 71.46C70.2151 71.5229 70.6868 71.1455 70.7477 70.6184C70.7659 70.4633 70.7467 70.3071 70.691 70.1617L66.8505 60.2027C67.1724 59.6018 67.3682 58.8708 67.5714 58.1148C67.8056 57.2406 68.0473 56.336 68.5093 55.6928C68.9713 55.0497 69.7285 54.554 70.4707 54.0648C71.49 53.3913 72.5455 52.6949 72.8846 51.6342C73.2075 50.6244 72.7926 49.5116 72.3584 48.3326V48.3337ZM49.5943 72.5186L46.7859 69.1769C46.5795 68.9318 46.2672 68.8081 45.9517 68.8472L41.6513 69.37L44.6726 61.5335C45.4255 61.7765 46.3196 61.7342 47.2522 61.6897C47.5998 61.6724 47.9591 61.655 48.3056 61.655C48.9462 61.655 49.4329 61.7168 49.8393 61.8503C50.5558 62.0867 51.2563 62.6605 51.9355 63.218C52.2509 63.475 52.5675 63.7353 52.8916 63.9653L49.5943 72.5186ZM68.3478 69.3689L64.0485 68.8461C63.733 68.8081 63.4207 68.9318 63.2143 69.1769L60.4047 72.5186L57.1054 63.9664C57.4294 63.7332 57.7481 63.4739 58.0615 63.219C58.7395 62.6626 59.4422 62.0878 60.1577 61.8524C60.9138 61.604 61.8015 61.6453 62.7437 61.6897C63.6859 61.7342 64.5704 61.7765 65.3233 61.5335L68.3467 69.3678L68.3478 69.3689Z" fill="#8C1EDF"/>
</g>
</g>
<defs>
<filter id="filter0_d_1028_2333" x="0" y="0" width="110" height="110" filterUnits="userSpaceOnUse" color-interpolation-filters="sRGB">
<feFlood flood-opacity="0" result="BackgroundImageFix"/>
<feColorMatrix in="SourceAlpha" type="matrix" values="0 0 0 0 0 0 0 0 0 0 0 0 0 0 0 0 0 0 127 0" result="hardAlpha"/>
<feOffset dy="4"/>
<feGaussianBlur stdDeviation="11"/>
<feComposite in2="hardAlpha" operator="out"/>
<feColorMatrix type="matrix" values="0 0 0 0 0 0 0 0 0 0 0 0 0 0 0 0 0 0 0.25 0"/>
<feBlend mode="normal" in2="BackgroundImageFix" result="effect1_dropShadow_1028_2333"/>
<feBlend mode="normal" in="SourceGraphic" in2="effect1_dropShadow_1028_2333" result="shape"/>
</filter>
<clipPath id="clip0_1028_2333">
<rect width="36" height="48.6486" fill="white" transform="translate(37 26.6758)"/>
</clipPath>
</defs>
</svg>
