<svg width="110" height="110" viewBox="0 0 110 110" fill="none" xmlns="http://www.w3.org/2000/svg">
<g filter="url(#filter0_d_1031_2406)">
<rect x="22" y="18" width="66" height="66" rx="33" fill="#F9F4FF" shape-rendering="crispEdges"/>
<g clip-path="url(#clip0_1031_2406)">
<path d="M55 52.0002C63.8 49.2002 66.6667 51.8335 67 53.5002C57.4 56.3003 57.6667 64.3335 59 68C53.8 72.8 40.5 66.3333 34.5 62.5C35.5 54 45 50 48.5 51C51.3 51.8 54 52.0001 55 52.0002Z" fill="#F0DCFF"/>
<circle cx="54" cy="41" r="10" fill="#F0DCFF"/>
<path d="M53.8851 52.9605C49.8201 52.9605 46.1063 50.9426 43.9484 47.5547C42.7858 45.7336 42.1752 43.6336 42.1752 41.4762C42.1752 38.4 43.4047 35.5043 45.6296 33.3387C47.8377 31.1812 50.7736 30 53.8851 30H53.952C57.0718 30.0164 59.9993 31.2305 62.2074 33.4207C64.4156 35.6109 65.62 38.4984 65.5949 41.5582C65.5782 43.6828 64.9676 45.7582 63.8217 47.5547C61.6638 50.9426 57.9501 52.9605 53.8851 52.9605ZM53.8851 32.3215C51.4009 32.3215 49.0673 33.2648 47.3024 34.9875C45.5292 36.7184 44.5506 39.0234 44.5506 41.4762C44.5506 43.1988 45.0357 44.8723 45.9642 46.316C47.6872 49.0148 50.6481 50.6309 53.8851 50.6309C57.122 50.6309 60.0913 49.0148 61.806 46.316C62.7176 44.8805 63.2028 43.2316 63.2195 41.5336C63.2362 39.1055 62.2743 36.8004 60.5179 35.0531C58.7614 33.3059 56.4194 32.3379 53.9436 32.3215C53.9185 32.3215 53.9018 32.3215 53.8851 32.3215Z" fill="#8C1EDF"/>
<path d="M63 61L68 58L75 61L74 68L68 71L63 66V61Z" fill="#8C1EDF"/>
<path d="M68.7316 72.0001C68.5309 72.0001 68.3218 71.9509 68.1378 71.8442L65.135 70.1462C62.8683 68.8665 61.4631 66.4794 61.4631 63.9118V61.2868C61.4631 60.3927 61.9566 59.5642 62.7429 59.113L67.4519 56.447C68.2381 56.004 69.2168 56.004 70.0113 56.447L74.7204 59.113C75.5066 59.556 76.0001 60.3927 76.0001 61.2868V63.9118C76.0001 66.4712 74.5949 68.8583 72.3282 70.1462L69.3255 71.8442C69.1415 71.9509 68.9324 72.0001 68.7316 72.0001ZM68.7316 58.4403C68.6982 58.4403 68.6647 58.4485 68.6396 58.4649L63.9306 61.131C63.872 61.1638 63.8386 61.2212 63.8386 61.2868V63.9118C63.8386 65.6427 64.7921 67.2587 66.3227 68.1282L68.7316 69.4899L71.1405 68.1282C72.6712 67.2587 73.6247 65.6427 73.6247 63.9118V61.2868C73.6247 61.2212 73.5912 61.1638 73.5327 61.131L68.8236 58.4649C68.7902 58.4485 68.7567 58.4403 68.7316 58.4403Z" fill="#8C1EDF"/>
<path d="M67.5691 67.0455C67.4938 67.0455 67.4186 67.0373 67.3349 67.0291C66.7996 66.9635 66.3312 66.66 66.0636 66.1924L64.9177 64.2482C64.5915 63.6904 64.7838 62.985 65.3526 62.6568C65.9214 62.3369 66.6407 62.5256 66.9753 63.0834L67.7029 64.3139L70.6806 61.3936C71.1406 60.9424 71.8934 60.9424 72.3534 61.3936C72.8135 61.8447 72.8135 62.583 72.3534 63.0342L68.7903 66.5287C68.4557 66.8732 68.0208 67.0455 67.5691 67.0455Z" fill="#F9F4FF"/>
<path d="M53.8851 70.1461C47.2104 70.1461 40.8285 68.1363 35.4253 64.3218C34.271 63.5015 33.7441 62.0414 34.1205 60.6879C34.6139 58.9078 35.35 57.2015 36.3286 55.6183C39.3397 50.7129 45.4205 48.4898 51.1165 50.2289C52.0115 50.4996 52.9399 50.639 53.8851 50.639C54.8302 50.639 55.7586 50.4996 56.6536 50.2289C58.7698 49.5808 61.0365 49.4742 63.1861 49.9172C65.3273 50.3519 67.318 51.3199 68.9406 52.7062C69.3087 53.0179 69.4425 53.5101 69.2836 53.9613C69.1246 54.4125 68.7064 54.716 68.2213 54.7406C63.161 54.9949 59.2047 59.0883 59.2047 64.0593C59.2047 65.4621 59.5142 66.8074 60.1164 68.0543C60.2753 68.3824 60.267 68.7679 60.0997 69.0879C59.9324 69.4078 59.6145 69.6375 59.2465 69.6949C57.49 69.9984 55.6834 70.1461 53.8851 70.1461ZM47.2104 51.9679C43.6306 51.9679 40.2431 53.7398 38.3611 56.816C37.4996 58.2187 36.8472 59.7281 36.4122 61.2949C36.2952 61.7215 36.4541 62.1808 36.8137 62.4351C41.8072 65.9543 47.7123 67.8164 53.8851 67.8164C55.0561 67.8164 56.2354 67.7508 57.398 67.6113C57.0216 66.4711 56.8376 65.2734 56.8376 64.0511C56.8376 58.8832 60.2669 54.4781 65.0513 52.9605C62.6926 51.8695 59.924 51.6644 57.3478 52.4437C56.227 52.7883 55.0644 52.9605 53.8767 52.9605C52.689 52.9605 51.5264 52.7883 50.4056 52.4437C49.3517 52.1238 48.2727 51.9679 47.2104 51.9679Z" fill="#8C1EDF"/>
</g>
</g>
<defs>
<filter id="filter0_d_1031_2406" x="0" y="0" width="110" height="110" filterUnits="userSpaceOnUse" color-interpolation-filters="sRGB">
<feFlood flood-opacity="0" result="BackgroundImageFix"/>
<feColorMatrix in="SourceAlpha" type="matrix" values="0 0 0 0 0 0 0 0 0 0 0 0 0 0 0 0 0 0 127 0" result="hardAlpha"/>
<feOffset dy="4"/>
<feGaussianBlur stdDeviation="11"/>
<feComposite in2="hardAlpha" operator="out"/>
<feColorMatrix type="matrix" values="0 0 0 0 0 0 0 0 0 0 0 0 0 0 0 0 0 0 0.25 0"/>
<feBlend mode="normal" in2="BackgroundImageFix" result="effect1_dropShadow_1031_2406"/>
<feBlend mode="normal" in="SourceGraphic" in2="effect1_dropShadow_1031_2406" result="shape"/>
</filter>
<clipPath id="clip0_1031_2406">
<rect width="42" height="42" fill="white" transform="translate(34 30)"/>
</clipPath>
</defs>
</svg>
